<?xml version="1.0" encoding="utf-8"?>
<!-- Generator: Adobe Illustrator 26.0.2, SVG Export Plug-In . SVG Version: 6.00 Build 0)  -->
<svg version="1.1" id="Layer_1" xmlns="http://www.w3.org/2000/svg" xmlns:xlink="http://www.w3.org/1999/xlink" x="0px" y="0px"
	 viewBox="0 0 380.68 118.62" style="enable-background:new 0 0 380.68 118.62;" xml:space="preserve">
<style type="text/css">
	.st0{clip-path:url(#SVGID_00000077308879512136139430000002176212912451447433_);fill:#CBB04B;}
	.st1{clip-path:url(#SVGID_00000152962947611773424980000008735233793058312355_);fill:#CBB04B;}
	.st2{clip-path:url(#SVGID_00000136401954929239704380000003140657883158436278_);fill:#CBB04B;}
	.st3{clip-path:url(#SVGID_00000124841576339134699650000018104073415473207195_);fill:#CBB04B;}
</style>
<g>
	<defs>
		<rect id="SVGID_1_" x="2.12" y="1.96" width="375.64" height="111.85"/>
	</defs>
	<clipPath id="SVGID_00000044170620063553965040000010285544475241852854_">
		<use xlink:href="#SVGID_1_"  style="overflow:visible;"/>
	</clipPath>
	<path style="clip-path:url(#SVGID_00000044170620063553965040000010285544475241852854_);fill:#CBB04B;" d="M100.27,37.88
		c1.73-0.31,3.52-0.5,5.31-0.5l-0.37,0.88c-1.6,0-3.21,0.19-4.82,0.5v0.75c0,10.81-10.99,23.51-30.02,23.51
		c-1.54,0-2.96-0.06-4.26-0.25C53.2,76.15,42.7,83.7,38.32,83.7c-1.17,0-1.61-0.69-1.61-1.63c0-1.89,1.67-4.9,2.47-5.91
		c4.76-6.16,15.32-13.64,23.53-19.99l13.03-9.93c-15.87,10.87-32.3,17.73-47.56,17.73c-16.31,0-26.07-6.22-26.07-16.15
		c0-12.7,13.16-18.42,29.09-18.42c8.03,0,16.74,1.45,24.83,4.21c7.1-5.59,16.99-8.93,25.26-8.93
		C93.54,24.68,99.53,30.65,100.27,37.88 M74.26,44.22c-5.74-4.34-12.04-7.48-18.41-9.55c-3.95,3.39-6.86,7.48-7.78,12.2l-0.86-0.06
		c0.99-4.78,3.89-8.99,7.85-12.38c-6.49-2.01-13.03-2.95-19.15-2.95c-17.67,0-32,7.54-32,18.1c0,9.05,11.61,13.58,23.59,13.58
		c24.34,0,46.45-15.97,62.82-28.6L91,35.42c-7.91,6.16-18.59,16.15-29.03,25.52c0.86,0.44,1.98,0.82,3.21,1.01
		c2.35-2.45,4.82-5.03,7.23-7.73c0,0,11.8-12.38,26.01-15.9c0-0.38,0.06-0.75,0.06-1.19c0-6.6-5.13-11.88-17.73-11.88
		c-7.41,0-16.99,3.21-23.9,8.68c6.8,2.39,13.1,5.66,18.1,9.74L74.26,44.22z M37.64,82c0,0.44,0.43,0.75,1.36,0.75
		c3.34-0.06,13.9-8.36,25.63-20.24c-1.24-0.25-2.28-0.63-3.21-1.01c-7.84,7.04-15.57,13.7-21.8,18.1
		C38.38,80.49,37.64,81.37,37.64,82 M66.73,62.14h0.8c16.12,0,29.22-12.51,30.76-22.94c-13.1,3.33-24.21,14.83-24.21,14.83
		C71.55,56.92,69.08,59.62,66.73,62.14"/>
</g>
<g>
	<defs>
		<rect id="SVGID_00000019661464120724483700000002684482958017766561_" width="380.68" height="118.62"/>
	</defs>
	<clipPath id="SVGID_00000119117137638287698380000007235915802993777340_">
		<use xlink:href="#SVGID_00000019661464120724483700000002684482958017766561_"  style="overflow:visible;"/>
	</clipPath>
	<path style="clip-path:url(#SVGID_00000119117137638287698380000007235915802993777340_);fill:#CBB04B;" d="M100.39,62.7
		c0,2.58-3.77,7.6-8.22,11.69h0.62c1.61,0,4.63-1.01,7.04-2.64l2.41-1.63l0.25,0.5l-2.28,1.57c-1.24,0.82-5,2.83-7.47,2.83
		c-0.43,0-0.8-0.06-1.11-0.19c-3.71,3.33-7.84,5.97-10.5,5.97c-2.72,0-3.89-1.26-3.89-3.14c0-5.59,10.25-16.72,20.94-16.72
		C99.71,60.94,100.39,61.64,100.39,62.7 M91,74.46c-0.31-0.57-0.43-1.13-0.43-1.63c0-2.39,3.09-3.65,5.43-3.65
		c2.16-2.64,3.65-5.15,3.65-6.54c0-0.69-0.37-1.13-1.3-1.13c-4.14,0-19.02,13.45-19.02,17.54c0,0.75,0.49,1.19,1.6,1.19
		C83.53,80.24,87.42,77.66,91,74.46"/>
	<path style="clip-path:url(#SVGID_00000119117137638287698380000007235915802993777340_);fill:#CBB04B;" d="M122.38,70.12l0.25,0.5
		c-5,3.33-9.39,6.6-12.85,8.48c-2.22,1.19-5.13,2.07-7.47,2.07c-2.41,0-4.32-0.94-4.32-3.33c0-5.09,9.02-16.22,21-16.22
		c1.17,0,1.67,0.38,1.67,1.01c0,2.01-5.68,6.41-13.9,7.67c-3.34,3.33-5.99,6.79-5.99,8.36c0,1.32,1.05,1.76,2.47,1.76
		c1.98,0,4.69-0.88,6.3-1.82C112.5,76.91,117.13,73.64,122.38,70.12 M118.98,62.14c-2.59,0-7.6,3.71-11.74,7.67
		c6.55-1.01,12.78-5.47,12.78-7.1C120.03,62.33,119.72,62.14,118.98,62.14"/>
	<path style="clip-path:url(#SVGID_00000119117137638287698380000007235915802993777340_);fill:#CBB04B;" d="M99.71,59.62
		c9.82-6.98,18.34-9.05,26.44-9.05c5.25,0,10.31,0.88,15.26,1.88c2.9-2.51,5.5-4.9,7.72-7.17c2.78,0,6.18-0.31,6.18-0.31l0.19,0.38
		c-2.72,2.07-6.12,4.84-9.82,8.05c5.5,1.13,10.99,2.2,16.8,2.2c13.22,0,23.29-11.31,23.29-21.75c0-10.56-9.08-15.46-20.38-15.46
		c-13.96,0-31.32,7.48-39.28,21.18l-0.37-0.25c8.9-14.39,25.94-21.87,39.65-21.87c11.61,0,20.88,5.34,20.88,16.4
		c0,10.69-10.32,22.25-23.78,22.25c-5.99,0-11.74-1.07-17.3-2.26c-6.92,5.91-14.7,12.89-20.82,18.42c-1.54,1.38-4.88,4.78-4.88,6.41
		c0,0.75,0.43,1.01,1.11,1.01c1.48,0,4.08-1.32,5.25-2.07c2.9-1.89,6.79-4.59,11.12-7.48l0.25,0.5c-4.26,2.83-7.97,5.59-11.18,7.54
		c-1.85,1.13-4.32,2.26-6.05,2.26c-1.24,0-2.1-0.57-2.1-2.07c0-2.51,3.03-6.98,4.82-8.8c6.18-6.22,12.66-11.75,18.22-16.66
		c-4.82-1-9.76-1.82-14.76-1.82c-8.03,0-16.37,2.01-25.57,9.55L99.71,59.62z"/>
</g>
<g>
	<defs>
		<rect id="SVGID_00000067935773898152151570000009055368418865905293_" x="2.12" y="1.96" width="375.64" height="111.85"/>
	</defs>
	<clipPath id="SVGID_00000073679279066936805680000013312132562842871213_">
		<use xlink:href="#SVGID_00000067935773898152151570000009055368418865905293_"  style="overflow:visible;"/>
	</clipPath>
	<path style="clip-path:url(#SVGID_00000073679279066936805680000013312132562842871213_);fill:#CBB04B;" d="M157.83,70.62
		c-8.22,5.53-14.95,10.56-18.16,10.56c-1.3,0-2.04-0.82-2.04-2.77c0-6.1,15.32-14.77,15.32-17.66c0-0.44-0.25-1.51-0.37-2.7
		c-1.36,1.63-5.5,5.91-16.06,12.95l-0.43-0.38c11.3-7.54,15.2-11.63,16.43-13.2v-1.2c0-2.58,1.73-3.77,3.03-3.77
		c0.74,0,1.3,0.38,1.3,1.13c0,1.38-1.98,2.7-2.96,3.14c-0.37,0.19-0.49,0.5-0.49,0.75c0,1.89,0.56,3.77,0.56,5.66
		c0,6.03-14.39,12.51-14.39,16.28c0,0.69,0.31,1.01,0.93,1.01c2.29,0,8.71-4.65,17.11-10.31L157.83,70.62z"/>
	<path style="clip-path:url(#SVGID_00000073679279066936805680000013312132562842871213_);fill:#CBB04B;" d="M166.97,73.51
		c3.58-4.02,6.92-8.04,9.94-11.69c0,0,0.31-0.44,1.17-0.44c1.36,0,2.96-0.06,4.76-0.31l0.12,0.19c0,0-1.85,1.38-2.96,2.64
		l-16.25,16.28c0.12,0.19,0.37,0.25,0.68,0.25c2.29,0,8.71-4.65,17.11-10.31l0.25,0.5c-8.15,5.53-14.95,10.56-18.16,10.56
		c-0.31,0-0.56,0-0.8-0.13l-3.33,3.33c10.38,1.45,15.07,7.23,15.07,13.39c0,7.79-7.6,16.03-20.82,16.03
		c-5.44,0-11.86-1.45-19.09-4.84l0.31-0.44c6.55,3.14,12.42,4.46,17.48,4.46c12.66,0,20.2-8.04,20.2-15.53
		c0-5.66-4.32-11-13.9-12.32c-11.92,11.31-25.88,16.91-33.05,16.91c-2.78,0-4.01-0.94-4.01-2.39c0-4.9,14.39-15.59,32.86-15.59
		c0.74,0,1.42,0,2.04,0.06c3.03-2.83,5.93-5.78,8.71-8.8c-1.48,1.07-2.97,2.01-4.26,2.83c-1.48,0.94-4.51,2.58-6.67,2.58
		c-1.3,0-2.29-0.63-2.29-2.39c0-1.51,1.61-5.09,13.28-17.16c2.78,0,5.62-0.31,5.62-0.31l0.18,0.38
		c-3.95,2.95-16.92,15.34-16.92,17.54c0,0.88,0.49,1.19,1.17,1.19c1.42,0,3.89-1.38,5.44-2.39L166.97,73.51z M153.94,84.83
		c-17.11,0-31.07,10.12-31.07,14.52c0,1.26,1.11,2.01,3.52,2.01c4.76,0,14.39-2.89,29.4-16.53H153.94z"/>
	<path style="clip-path:url(#SVGID_00000073679279066936805680000013312132562842871213_);fill:#CBB04B;" d="M210.37,39.81
		l0.14,0.29c-2.45,1.62-4.62,3.16-6.43,4.31c-0.85,0.54-2.59,1.47-3.84,1.47c-0.75,0-1.31-0.36-1.31-1.36c0-0.86,0.92-2.91,7.64-9.8
		c1.6,0,3.23-0.18,3.23-0.18l0.11,0.22c-2.27,1.69-9.74,8.76-9.74,10.02c0,0.5,0.28,0.68,0.68,0.68c0.82,0,2.24-0.79,3.13-1.36
		C205.64,43,207.88,41.46,210.37,39.81 M210.09,32.66c0,0,0.96-2.05,1.35-2.73c0.21-0.29,0.57-0.29,0.71-0.29
		c0.89,0,2.7,0.14,2.7,0.14l0.07,0.25c0,0-4.09,2.41-4.62,2.69L210.09,32.66z"/>
	<path style="clip-path:url(#SVGID_00000073679279066936805680000013312132562842871213_);fill:#CBB04B;" d="M244.68,69.16
		c-5.05,1.22-7.37,1.31-11.96,1.31c-18.55,0-32.88-9.19-38.49-22.08c-4.51,1.51-9.24,2.37-14.29,2.37
		c-14.86,0-22.96-5.93-22.96-12.75c0-8.44,12.55-18.2,40.23-19.39c8.56-11.6,25.62-16.66,40.59-16.66c15.11,0,28.04,5.14,28.04,14
		c0,5.17-5.37,9.8-13.22,9.8c-16.7,0-32.52-7-49.72-7c-1.71,0-3.38,0.04-5.01,0.11c-3.73,4.56-5.97,10.2-5.97,17.06
		c0,4.17,0.96,8.12,2.63,11.74c5.79-1.76,11.3-4.71,17.52-9.05c2.95-2.05,5.86-4.2,7.07-4.2c0.5,0,0.68,0.32,0.68,0.72
		c0,0.79-1.1,2.33-4.3,5.78c3.59-2.59,8.71-6.07,10.41-6.07c0.53,0,0.89,0.22,0.89,0.83c0,3.45-8.07,8.08-8.07,9.44
		c0,0.39,0.18,0.58,0.53,0.58c1.31,0,5.01-2.66,9.85-5.89l0.14,0.29c-4.73,3.16-8.6,6.03-10.45,6.03c-0.75,0-1.32-0.61-1.32-1.72
		c0-2.41,8.39-8.04,8.39-9.05c0-0.07-0.07-0.11-0.18-0.11c-1.74,0-7.68,4.17-11.3,6.82c-0.96,1.04-2.1,2.23-3.41,3.56
		c-1.6,0-3.23,0.18-3.23,0.18l-0.11-0.22c2.27-1.69,10.59-8.8,10.59-10.34c0-0.11-0.07-0.18-0.21-0.18c-0.46,0-4.02,2.59-5.9,3.88
		c-5.54,3.88-11.23,7.14-17.34,9.23c6.22,12.75,21.75,21.69,39.52,21.69c1.71,0,3.86,0.37,10.77-1.19 M197,18.91
		c-27.08,1.22-39.52,10.77-39.52,18.96c0,6.39,7.61,11.92,21.71,11.92c5.44,0,10.24-0.61,14.82-1.97c-1.56-3.7-2.38-7.68-2.38-11.89
		C191.64,29.18,193.66,23.54,197,18.91 M252.62,25.48c7.71,0,12.94-4.49,12.94-9.52c0-7.9-12.51-12.57-27.22-12.57
		c-14.61,0-31.35,4.6-40.2,15.15c1.57-0.04,3.13-0.07,4.76-0.07C219.54,18.48,235.32,25.48,252.62,25.48"/>
</g>
<g>
	<defs>
		<rect id="SVGID_00000063629254236951502960000000703948807182087333_" width="380.68" height="118.62"/>
	</defs>
	<clipPath id="SVGID_00000041994248109926212250000012416676546905835442_">
		<use xlink:href="#SVGID_00000063629254236951502960000000703948807182087333_"  style="overflow:visible;"/>
	</clipPath>
	<path style="clip-path:url(#SVGID_00000041994248109926212250000012416676546905835442_);fill:#CBB04B;" d="M197.51,73.17
		c0,5.11,7.76,7.13,12.46,7.13c20.81,0,39.92-19.9,57.91-34.39c-5.23-1.78-11.29-2.85-18.23-2.85c-8.64,0-16.35,2.26-25.11,6.65
		l-1.82-2.44c8.11-3.62,16.82-5.29,25.34-5.29c7.94,0,14.76,1.25,20.52,3.33c5.41-4.28,10.7-8.08,15.93-10.69l0.23,0.53
		c-3.18,4.04-6.82,8.32-10.64,12.53c1.47,0.77,2.82,1.54,4.06,2.43c7.23-6.59,15.29-13.07,24.05-17.94l0.59,0.77
		c-8.06,7.66-14.58,14.61-19.93,20.85c8.29,7.48,12.05,17.46,12.05,26.37c0,11.7-6.47,21.56-17.87,21.56
		c-9.47,0-16.11-6-16.11-15.92c0-8.79,5.23-20.61,18.4-33.98l-1-0.71c-15.35,14.14-26.99,28.69-32.75,28.69
		c-0.65,0-0.88-0.42-0.88-1.01c0-7.25,14.52-21.56,25.87-31.9l-1.76-0.71c-16.17,13.43-37.57,35.17-59.33,35.17
		c-10.23,0-14.41-5.58-14.41-10.51c0-4.87,3.65-7.43,6.41-7.43c1.65,0,2.94,0.89,2.94,2.79C204.45,70.08,197.51,70.5,197.51,73.17
		 M246.19,78.93c4.88,0,16.17-14.32,31.46-28.33c-1.29-0.83-2.65-1.6-4.06-2.32c-13.17,14.67-27.75,28.87-27.75,30.35
		C245.84,78.87,245.96,78.93,246.19,78.93 M277.24,100.85c10.82,0,16.93-9.32,16.93-20.55c0-8.73-3.7-18.59-11.76-25.96
		c-13.52,15.98-18.7,27.44-18.7,34.99C263.72,97.23,269.42,100.85,277.24,100.85 M280.65,37.89l-0.06-0.12
		c-3.29,1.72-7.06,4.52-11.11,7.9c0.59,0.18,1.18,0.42,1.71,0.65L280.65,37.89z M300.58,33.91c-7.76,4.69-15.05,10.63-21.64,16.69
		l0.94,0.71c5.53-5.52,12.41-11.35,20.87-17.29L300.58,33.91z"/>
	<path style="clip-path:url(#SVGID_00000041994248109926212250000012416676546905835442_);fill:#CBB04B;" d="M296.81,63.13
		c0,2.44-3.59,7.19-7.82,11.05h0.59c1.53,0,4.41-0.95,6.7-2.5l2.29-1.54l0.24,0.48l-2.18,1.48c-1.18,0.77-4.76,2.67-7.11,2.67
		c-0.41,0-0.76-0.06-1.06-0.18c-3.53,3.15-7.47,5.64-10,5.64c-2.59,0-3.7-1.19-3.7-2.97c0-5.29,9.76-15.8,19.93-15.8
		C296.16,61.47,296.81,62.12,296.81,63.13 M287.87,74.24c-0.29-0.53-0.41-1.07-0.41-1.54c0-2.26,2.94-3.45,5.17-3.45
		c2.06-2.49,3.47-4.87,3.47-6.18c0-0.65-0.35-1.07-1.24-1.07c-3.94,0-18.11,12.71-18.11,16.57c0,0.71,0.47,1.13,1.53,1.13
		C280.76,79.71,284.46,77.27,287.87,74.24"/>
	<path style="clip-path:url(#SVGID_00000041994248109926212250000012416676546905835442_);fill:#CBB04B;" d="M329.91,46.38
		l0.18,0.36c-2.18,1.6-4.82,3.74-7.64,6.18c3.06,0.89,6.06,1.54,9.06,1.54c4.47,0,8.94-1.48,13.64-5.88l1.29,1.6
		c-4.94,3.92-9.53,5.29-13.99,5.29c-3.59,0-7.11-0.83-10.7-1.96c-6.88,5.76-14.99,13.01-21.28,18.65c-1.47,1.31-4.64,4.51-4.64,6.06
		c0,0.71,0.41,0.95,1.06,0.95c1.41,0,3.88-1.25,5-1.96c2.76-1.78,6.47-4.34,10.58-7.07l0.24,0.48c-4.06,2.67-7.59,5.29-10.64,7.13
		c-1.76,1.07-4.12,2.14-5.76,2.14c-1.18,0-2-0.53-2-1.96c0-2.38,2.88-6.6,4.59-8.32c6.59-6.59,13.52-12.3,19.17-17.34
		c-5.53-1.9-11.35-3.86-17.93-3.86c-4,0-8.29,0.71-13,2.67l-0.53-0.59c4.82-2.02,9.29-2.73,13.41-2.73c6.94,0,12.99,2.08,18.7,3.98
		c1.94-1.72,3.76-3.45,5.35-5.05C326.67,46.68,329.91,46.38,329.91,46.38"/>
	<path style="clip-path:url(#SVGID_00000041994248109926212250000012416676546905835442_);fill:#CBB04B;" d="M326.32,70.14
		l0.24,0.48c-4.06,2.67-7.64,5.23-10.64,7.13c-1.41,0.89-4.29,2.44-6.35,2.44c-1.23,0-2.18-0.6-2.18-2.26
		c0-1.43,1.53-4.81,12.64-16.22c2.65,0,5.35-0.3,5.35-0.3l0.18,0.36c-3.76,2.79-16.11,14.49-16.11,16.57c0,0.83,0.47,1.13,1.12,1.13
		c1.35,0,3.7-1.31,5.18-2.26C318.5,75.43,322.2,72.88,326.32,70.14 M325.85,58.32c0,0,1.59-3.39,2.24-4.51
		c0.35-0.47,0.94-0.47,1.17-0.47c1.47,0,4.47,0.24,4.47,0.24l0.12,0.42c0,0-6.76,3.98-7.64,4.46L325.85,58.32z"/>
	<path style="clip-path:url(#SVGID_00000041994248109926212250000012416676546905835442_);fill:#CBB04B;" d="M344.66,63.13
		c0,2.44-3.59,7.19-7.82,11.05h0.59c1.53,0,4.41-0.95,6.7-2.5l2.29-1.54l0.24,0.48l-2.18,1.48c-1.18,0.77-4.76,2.67-7.11,2.67
		c-0.41,0-0.76-0.06-1.06-0.18c-3.53,3.15-7.47,5.64-9.99,5.64c-2.59,0-3.7-1.19-3.7-2.97c0-5.29,9.76-15.8,19.93-15.8
		C344.02,61.47,344.66,62.12,344.66,63.13 M335.72,74.24c-0.29-0.53-0.41-1.07-0.41-1.54c0-2.26,2.94-3.45,5.17-3.45
		c2.06-2.49,3.47-4.87,3.47-6.18c0-0.65-0.35-1.07-1.24-1.07c-3.94,0-18.11,12.71-18.11,16.57c0,0.71,0.47,1.13,1.53,1.13
		C328.61,79.71,332.31,77.27,335.72,74.24"/>
	<path style="clip-path:url(#SVGID_00000041994248109926212250000012416676546905835442_);fill:#CBB04B;" d="M355.01,71.98
		c5.94-4.28,14.4-10.04,17.23-10.04c0.88,0,1.47,0.36,1.47,1.37c0,5.7-13.35,13.37-13.35,15.62c0,0.65,0.29,0.95,0.88,0.95
		c2.18,0,8.29-4.4,16.29-9.74l0.24,0.48c-7.82,5.23-14.23,9.98-17.28,9.98c-1.24,0-2.18-1.01-2.18-2.85
		c0-3.98,13.88-13.3,13.88-14.97c0-0.12-0.12-0.18-0.29-0.18c-2.88,0-12.7,6.89-18.7,11.29c-1.59,1.72-3.47,3.68-5.64,5.88
		c-2.65,0-5.35,0.3-5.35,0.3l-0.18-0.36c3.76-2.79,17.52-14.55,17.52-17.11c0-0.18-0.12-0.3-0.35-0.3c-0.76,0-6.65,4.28-9.76,6.42
		l-3.29,2.26l-0.41-0.36l3.59-2.44c4.88-3.39,9.7-6.95,11.7-6.95c0.82,0,1.12,0.53,1.12,1.19C362.12,63.73,360.3,66.28,355.01,71.98
		"/>
</g>
</svg>
